<svg xmlns="http://www.w3.org/2000/svg" viewBox="0 0 512 512">
  <defs>
    <linearGradient id="googleGrad" x1="0%" y1="0%" x2="100%" y2="100%">
      <stop offset="0%" style="stop-color:#4285F4"/>
      <stop offset="25%" style="stop-color:#EA4335"/>
      <stop offset="50%" style="stop-color:#FBBC04"/>
      <stop offset="75%" style="stop-color:#34A853"/>
      <stop offset="100%" style="stop-color:#4285F4"/>
    </linearGradient>
  </defs>
  <!-- Fondo circular -->
  <circle cx="256" cy="256" r="240" fill="#ffffff" stroke="url(#googleGrad)" stroke-width="16"/>
  <!-- Pin de ubicacion estilo Google Maps -->
  <path d="M256 72c-66.3 0-120 53.7-120 120 0 90 120 200 120 200s120-110 120-200c0-66.3-53.7-120-120-120z" fill="#EA4335"/>
  <circle cx="256" cy="192" r="48" fill="#ffffff"/>
  <!-- Letra G estilizada -->
  <path d="M256 160c-17.7 0-32 14.3-32 32s14.3 32 32 32c12.3 0 23-6.9 28.4-17h-28.4v-12h44c0.5 2.6 0.8 5.2 0.8 8 0 26.5-21.5 48-48 48s-48-21.5-48-48 21.5-48 48-48c11.8 0 22.6 4.3 31 11.4l-9.2 9.2c-5.8-5.1-13.4-8.2-21.8-8.2-17.7 0-32 14.3-32 32s14.3 32 32 32c15.5 0 28.4-11 31.2-25.6h-31.2v-12h44" fill="#4285F4"/>
  <!-- Texto GMB -->
  <text x="256" y="450" font-family="Arial, sans-serif" font-size="64" font-weight="bold" text-anchor="middle" fill="#5F6368">GMB</text>
  <text x="256" y="485" font-family="Arial, sans-serif" font-size="28" text-anchor="middle" fill="#5F6368">Scraper</text>
</svg>
